<?xml version="1.0" encoding="utf-8"?>
<!-- Generator: Adobe Illustrator 22.1.0, SVG Export Plug-In . SVG Version: 6.00 Build 0)  -->
<svg version="1.1" id="people" xmlns="http://www.w3.org/2000/svg" xmlns:xlink="http://www.w3.org/1999/xlink" x="0px" y="0px"
	 viewBox="0 0 750 500" style="enable-background:new 0 0 750 500;" xml:space="preserve">
<style type="text/css">
	.st0{fill:#F0FBFF;}
	.st1{fill:#82BCF4;}
	.st2{fill:#C0E4FF;}
	.st3{fill:#9AD0FC;}
	.st4{fill:none;stroke:#9DD4F9;stroke-linejoin:round;stroke-miterlimit:10;}
	.st5{fill:none;stroke:#9DD4F9;stroke-linejoin:round;stroke-dasharray:3.4986,3.4986;}
	.st6{fill:#FFFFFF;stroke:#B8E6FF;stroke-linejoin:round;stroke-miterlimit:10;}
	.st7{fill:none;stroke:#B8E6FF;stroke-linejoin:round;stroke-miterlimit:10;}
	.st8{fill:none;stroke:#86BFEF;stroke-miterlimit:10;}
	.st9{fill:#86BFEF;}
	.st10{fill:#52A5FF;stroke:#418BE5;stroke-linejoin:round;stroke-miterlimit:10;}
	.st11{fill:#6EBEFF;}
	.st12{fill:#85CEFF;}
	.st13{fill:#FFFFFF;stroke:#418BE5;stroke-linejoin:round;stroke-miterlimit:10;}
	.st14{clip-path:url(#SVGID_2_);}
	.st15{fill:none;stroke:#DEF2FF;stroke-width:5;stroke-linejoin:round;stroke-miterlimit:10;}
	.st16{clip-path:url(#SVGID_2_);fill:#FFFFFF;}
	.st17{fill:#DEF2FF;}
	.st18{opacity:0.55;fill:#DEF2FF;}
	.st19{clip-path:url(#SVGID_4_);fill:none;stroke:#DEF2FF;stroke-width:5;stroke-linejoin:round;stroke-miterlimit:10;}
	.st20{clip-path:url(#SVGID_4_);}
	.st21{fill:#FFFFFF;stroke:#CCEDFF;stroke-miterlimit:10;}
	.st22{fill:none;stroke:#CCEDFF;stroke-miterlimit:10;}
	.st23{fill:none;stroke:#CCEDFF;stroke-width:3;stroke-linecap:round;stroke-miterlimit:10;}
	.st24{fill:#CCEDFF;}
	.st25{fill:#E6F7FF;}
	.st26{fill:none;stroke:#DEF2FF;stroke-width:3;stroke-linejoin:round;stroke-miterlimit:10;}
	.st27{fill:#FFFFFF;}
	.st28{fill:#FFAB37;}
	.st29{fill:#F3E0CC;}
	.st30{clip-path:url(#SVGID_6_);fill:none;stroke:#F4C6A4;stroke-width:1.5;stroke-miterlimit:10;}
	.st31{clip-path:url(#SVGID_6_);fill:#AF480E;}
	.st32{clip-path:url(#SVGID_8_);}
	.st33{fill:none;stroke:#ACD9FC;stroke-width:1.5;stroke-miterlimit:10;}
	.st34{fill:#FF5C5C;}
	.st35{fill:#F886BC;}
	.st36{fill:#22252D;}
	.st37{fill:none;stroke:#1A3987;stroke-width:0.75;stroke-linejoin:round;stroke-miterlimit:10;}
	.st38{fill:#592921;}
	.st39{fill:none;stroke:#A35945;stroke-width:0.75;stroke-miterlimit:10;}
	.st40{fill:#0B0B3A;}
	.st41{fill:none;stroke:#E2AA79;stroke-width:0.75;stroke-miterlimit:10;}
	.st42{fill:#0070E4;}
	.st43{fill:#18277A;}
	.st44{fill:none;stroke:#5288FF;stroke-width:0.75;stroke-miterlimit:10;}
	.st45{fill:none;stroke:#E26223;stroke-width:0.75;stroke-miterlimit:10;}
	.st46{fill:#AF480E;}
	.st47{fill:#E26223;}
	.st48{fill:none;stroke:#113D98;stroke-width:0.75;stroke-miterlimit:10;}
	.st49{fill:#00276F;}
	.st50{fill:none;stroke:#0070E4;stroke-width:0.5;stroke-linecap:round;stroke-miterlimit:10;}
	.st51{fill:none;stroke:#C93A8C;stroke-width:0.75;stroke-miterlimit:10;}
	.st52{fill:#FF855A;}
	.st53{fill:none;stroke:#C93A8C;stroke-width:0.5;stroke-miterlimit:10;}
	.st54{fill:none;stroke:#00276F;stroke-width:0.5;stroke-linecap:round;stroke-linejoin:round;stroke-miterlimit:10;}
	.st55{fill:#BC3F39;}
	.st56{fill:none;stroke:#912623;stroke-width:0.75;stroke-linejoin:round;stroke-miterlimit:10;}
	.st57{fill:#D34F42;}
	.st58{fill:none;stroke:#7C1F1A;stroke-width:0.75;stroke-linejoin:round;stroke-miterlimit:10;}
	.st59{fill:none;stroke:#4C5360;stroke-width:0.75;stroke-linejoin:round;stroke-miterlimit:10;}
	.st60{fill:none;stroke:#F9D9D7;stroke-width:0.75;stroke-miterlimit:10;}
	.st61{fill:none;stroke:#0B0B3A;stroke-width:0.5;stroke-miterlimit:10;}
	.st62{fill:#212237;}
	.st63{fill:#4C82FC;}
	.st64{fill:#202263;}
	.st65{fill:none;stroke:#4C82FC;stroke-width:0.5;stroke-miterlimit:10;}
	.st66{fill:none;stroke:#1A4FC6;stroke-width:0.5;stroke-miterlimit:10;}
	.st67{fill:#4348A3;}
	.st68{fill:#103BB2;}
	.st69{fill:none;stroke:#458DF4;stroke-width:0.5;stroke-miterlimit:10;}
	.st70{fill:none;stroke:#418BE5;stroke-linejoin:round;stroke-miterlimit:10;}
	.st71{fill:#F46CB4;}
	.st72{fill:#101D54;}
	.st73{fill:none;stroke:#773026;stroke-width:0.75;stroke-miterlimit:10;}
	.st74{fill:none;stroke:#1A3A7A;stroke-width:0.75;stroke-miterlimit:10;}
	.st75{fill:none;stroke:#C44220;stroke-width:0.75;stroke-miterlimit:10;}
	.st76{fill:none;stroke:#304DC6;stroke-width:0.75;stroke-miterlimit:10;}
	.st77{fill:#A5A5A5;}
	.st78{fill:#BDBDBD;}
	.st79{fill:none;stroke:#868A8E;stroke-width:0.75;stroke-miterlimit:10;}
</style>
<g>
	<g>
		<g>
			<path class="st0" d="M572.8,71.9c-1.6-0.8-3.4-1.2-4.9-2.2c-4.3-2.8-5.1-8.8-6.8-13.6c-2-5.3-7.3-8.3-12.9-7.7
				c-3.9,0.4-7,2.7-9.6,5.6c-1.7,1.8-2.2,7.9-7.4,8c-1,0-1.8-0.9-2.7-1.5c-2.5-1.8-6.4-0.5-7.5,2.6c-0.5,1.5-0.5,3.3-1.4,4.6
				c-2.2,3.4-7.7,0.7-10.5,3.4c-1,1-1.5,2.5-2.4,3.6c-1.3,1.6-3.3,2.3-5.2,2.8c-5.3,1.5-12.2,1.8-12.2,3.5c0,2.5,27.2,1,43.2,1
				c8.8,0,17.6,0,26.4,0c4.1,0,17.3,1.9,17.1-5.7C575.9,74.3,574.4,72.7,572.8,71.9z"/>
		</g>
		<g>
			<path class="st0" d="M178.9,111c-0.9-1.5-1.2-3.5-1.8-5.3c-1.4-3.8-4.8-6.3-8-5.8c-1.5,0.2-2.9,1-4.4,1
				c-6.9,0-7.3-11.6-12.5-15.2c-4.6-3.2-10.3-0.6-13.2,4.5c-1.7,2.9-2.4,6.5-3.7,9.8c-1.2,3.3-3.5,3.7-6.3,4.3
				c-2.6,0.6-5.7,3.8-4.9,7.7c0.3,1.6,1.2,3.1,2.3,3.9c4.4,3.1,12.2,2.7,17.9,2.6c5.4-0.2,49.3,0.3,49.3-1.5
				C193.6,115.2,181.5,115.6,178.9,111z"/>
		</g>
		<g>
			<path class="st0" d="M442.6,46.4c-0.1-0.1-0.1-0.1-0.2-0.2c-1.6-2.2-2.3-4.5-5-4.7c-3.2-0.2-8.4,0.9-9.7-4
				c-0.8-2.9,0-6.3-1.7-8.9c-1.2-1.8-3.2-2.5-5-2.4c-3.2,0.2-5.8,3-8.9,3.5c-3.6,0.6-5.4-3.7-8.3-5.5c-5.2-3.2-9.6-0.4-12.3,2.2
				c-2.9,2.9-4.8,7.3-5.4,11.9c-0.7,5.6,3.4,11,7.8,13.5c2.2,1.2,4.6,1.5,6.9,1.5c2.8,0,5.6-0.1,8.3-0.2c5.2-0.1,47.8,0.3,47.8-1.3
				c0-1.1-6.2-2.1-7.1-2.4C447.4,48.5,444.5,48.8,442.6,46.4z"/>
		</g>
		<g>
			<polygon class="st1" points="236.1,71.4 236.4,77.3 213.3,53.2 			"/>
			<polygon class="st2" points="246.2,64.4 224.6,79.2 213.3,53.2 			"/>
			<polygon class="st3" points="238,70.1 213.3,53.2 234.4,72.5 236.4,77.3 			"/>
		</g>
		<g>
			<line class="st4" x1="658.5" y1="138.5" x2="658.5" y2="143.2"/>
			<line class="st4" x1="660.8" y1="140.9" x2="656.2" y2="140.9"/>
		</g>
		<g>
			<line class="st4" x1="696.5" y1="338.4" x2="696.5" y2="343"/>
			<line class="st4" x1="698.8" y1="340.7" x2="694.2" y2="340.7"/>
		</g>
		<g>
			<line class="st4" x1="650.6" y1="179.5" x2="650.6" y2="184.1"/>
			<line class="st4" x1="652.9" y1="181.8" x2="648.3" y2="181.8"/>
		</g>
		<g>
			<line class="st4" x1="196.4" y1="96.8" x2="196.4" y2="101.5"/>
			<line class="st4" x1="198.7" y1="99.1" x2="194" y2="99.1"/>
		</g>
		<g>
			<line class="st4" x1="71.8" y1="197.2" x2="71.8" y2="201.8"/>
			<line class="st4" x1="74.1" y1="199.5" x2="69.5" y2="199.5"/>
		</g>
		<g>
			<line class="st4" x1="84.5" y1="378.9" x2="84.5" y2="383.5"/>
			<line class="st4" x1="86.8" y1="381.2" x2="82.1" y2="381.2"/>
		</g>
		<g>
			<line class="st4" x1="386.1" y1="69.5" x2="386.1" y2="74.1"/>
			<line class="st4" x1="388.4" y1="71.8" x2="383.8" y2="71.8"/>
		</g>
		<path class="st4" d="M405.8,114c0,1.2-1,2.2-2.2,2.2c-1.2,0-2.2-1-2.2-2.2s1-2.2,2.2-2.2C404.8,111.8,405.8,112.8,405.8,114z"/>
		<path class="st4" d="M692.1,191.4c0,1.2-1,2.2-2.2,2.2c-1.2,0-2.2-1-2.2-2.2c0-1.2,1-2.2,2.2-2.2
			C691.1,189.2,692.1,190.2,692.1,191.4z"/>
		<path class="st4" d="M499.3,53.2c0,1.2-1,2.2-2.2,2.2c-1.2,0-2.2-1-2.2-2.2c0-1.2,1-2.2,2.2-2.2C498.3,51,499.3,52,499.3,53.2z"/>
		<path class="st4" d="M294.1,96.8c0,1.2-1,2.2-2.2,2.2c-1.2,0-2.2-1-2.2-2.2s1-2.2,2.2-2.2C293.2,94.6,294.1,95.6,294.1,96.8z"/>
		<circle class="st4" cx="605.7" cy="114" r="2.2"/>
		<circle class="st4" cx="53.2" cy="250.4" r="2.2"/>
		<circle class="st4" cx="134.4" cy="164.5" r="2.2"/>
		<path class="st4" d="M178.3,84.4c0,1.2-1,2.2-2.2,2.2c-1.2,0-2.2-1-2.2-2.2s1-2.2,2.2-2.2C177.3,82.2,178.3,83.2,178.3,84.4z"/>
		<g>
			<line class="st4" x1="102.4" y1="140.9" x2="127.3" y2="140.9"/>
			<line class="st4" x1="134.9" y1="140.9" x2="146" y2="140.9"/>
		</g>
		<g>
			<line class="st4" x1="538.1" y1="99" x2="563.1" y2="99"/>
			<line class="st4" x1="570.7" y1="99" x2="581.8" y2="99"/>
		</g>
		<g>
			<line class="st4" x1="340.8" y1="60.2" x2="323.8" y2="60.2"/>
			<line class="st4" x1="318.2" y1="60.2" x2="309.1" y2="60.2"/>
		</g>
		<line class="st4" x1="430" y1="77.8" x2="448.3" y2="77.8"/>
		<line class="st4" x1="677.5" y1="271" x2="695.7" y2="271"/>
		<line class="st4" x1="690.5" y1="264.3" x2="702.5" y2="264.3"/>
		<g>
			<path class="st5" d="M562.8,344.6c-23.3-2-46.3-7.7-69.7-7.9c-10.8-0.1-24,0.1-34,4.9c-9.5,4.6-17.1,12.7-27.1,16.7
				c-4.6,1.8-9.5,2.5-14.4,2.9c-39.4,2.7-72.7-20.1-108.9-30.9c-14.5-4.3-30.6,1.1-45.1,4c-19.4,3.8-38.5,10.2-58.5,9.4
				c-43.4-1.9-96.1-24.1-113.6-66.8c-7.5-18.4-9.4-40.8,1.3-58.5c12.3-20.2,38.2-26.2,60.9-32.7c25.5-7.3,49.8-22.7,68-42.3
				c13.2-14.2,19.2-33,30.4-48.6c12.6-17.6,35.9-29.7,57.5-22.1c23,8.1,39.6,24.1,65.3,25.9c18.7,1.3,36.3-4.1,54.7-4.7
				c27.3-1,54.8,11.8,71.6,33.4c8,10.3,13.8,22.4,23.2,31.3c17.1,16.3,43.1,19.2,66.6,17.4c23.6-1.9,47.2-14.6,70.6-11.1
				c26.9,4,54.1,25,56,54.4c2.5,37.4-15.6,72.8-44.1,96.3C643,340.5,601.5,347.9,562.8,344.6z"/>
		</g>
	</g>
	<g>
		<g>
			<path class="st6" d="M212.3,285.1c-16.9-19.3-50.1-61-34.3-152.3c54,48.6,59.9,80.3,62.2,141.1"/>
			<path class="st7" d="M178,132.8c0,0,9.4,73.7,47.8,144.3"/>
			<path class="st7" d="M178,132.8c0,0-5.8,78.7,41.9,150.2"/>
			<path class="st7" d="M229.5,274.3C227.1,257,197,171.6,178,132.8"/>
			<path class="st7" d="M235,270.3c-7.9-43.9-14.2-87.3-57.1-137.5"/>
		</g>
		<g>
			<path class="st6" d="M199.9,300.4c-19.2-10.8-58-35.1-71.2-113.5c57.5,23.9,71.4,47.9,90.6,96.5"/>
			<path class="st7" d="M128.7,186.9c0,0,28.6,57,79.9,103.1"/>
			<path class="st7" d="M128.7,186.9c0,0,17.8,65.4,76.8,109.6"/>
			<path class="st7" d="M210.8,286.7c-6.8-13.4-55.6-73.9-82.1-99.8"/>
			<path class="st7" d="M214.2,281.9c-18.9-33.3-36.4-66.7-85.5-95"/>
		</g>
		<g>
			<path class="st6" d="M185.7,360.5c-25.6-1.5-78.6-7.2-132.5-82.6c72.5-4.3,99.2,13.7,144.1,54.8"/>
			<path class="st7" d="M53.2,278c0,0,59.1,45.1,136.3,67.3"/>
			<path class="st7" d="M53.2,278c0,0,52,59.4,136.3,75.6"/>
			<path class="st7" d="M190.1,340.7c-14-10.5-95.9-49-136.9-62.7"/>
			<path class="st7" d="M191.2,333.9c-36.8-25.2-72.1-51.3-138-56"/>
		</g>
		<g>
			<path class="st8" d="M180,330c-12.1-56.9-60.6-86.6-60.6-86.6"/>
			<path class="st9" d="M120.9,244.3c0,0-9.6-17.6-16.8-12.3C96.9,237.3,120.9,244.3,120.9,244.3z"/>
			<path class="st9" d="M129.3,250.5c0,0,4.6-20.7-4.9-21.5C115,228.2,129.3,250.5,129.3,250.5z"/>
			<path class="st9" d="M137.3,257.3c0,0,12.3-17.3,3.9-21.7C132.8,231.2,137.3,257.3,137.3,257.3z"/>
			<path class="st9" d="M147.7,267.6c0,0,11.6-16.3,3.7-20.4C143.5,243,147.7,267.6,147.7,267.6z"/>
			<path class="st9" d="M148.3,267.4c0,0-18.7-7.1-20.7,1.6C125.6,277.6,148.3,267.4,148.3,267.4z"/>
			<path class="st9" d="M156.1,277.5c0,0,11.6-16.3,3.7-20.4C151.9,252.9,156.1,277.5,156.1,277.5z"/>
			<path class="st9" d="M156.7,277.3c0,0-18.7-7.1-20.7,1.6C134,287.5,156.7,277.3,156.7,277.3z"/>
			<path class="st9" d="M163,289.1c0,0,13.6-14.6,6.3-19.8C162.1,264.2,163,289.1,163,289.1z"/>
			<path class="st9" d="M163.7,289c0,0-17.6-9.5-20.7-1.1C139.8,296.2,163.7,289,163.7,289z"/>
			<path class="st9" d="M169.6,299.5c0,0,13.6-14.6,6.3-19.8C168.7,274.6,169.6,299.5,169.6,299.5z"/>
			<path class="st9" d="M170.3,299.5c0,0-17.6-9.5-20.7-1.1C146.4,306.6,170.3,299.5,170.3,299.5z"/>
			<path class="st9" d="M175,313.6c0,0,13.6-14.6,6.3-19.8C174,288.8,175,313.6,175,313.6z"/>
			<path class="st9" d="M175.6,313.6c0,0-17.6-9.5-20.7-1.1C151.8,320.8,175.6,313.6,175.6,313.6z"/>
			<path class="st9" d="M136.9,257.2c0,0-21.2-1.2-20.4,8.3C117.3,274.9,136.9,257.2,136.9,257.2z"/>
			<path class="st9" d="M128.9,249.7c0,0-20-7.1-21.9,2.2C105,261.1,128.9,249.7,128.9,249.7z"/>
		</g>
		<g>
			<path class="st8" d="M151,373.3C117.4,338.6,70.3,339,70.3,339"/>
			<path class="st9" d="M71.8,339.1c0,0-14.5-8.2-17.2-1.3C51.8,344.6,71.8,339.1,71.8,339.1z"/>
			<path class="st9" d="M80.4,339.7c0,0-5.9-16.6-12.8-13S80.4,339.7,80.4,339.7z"/>
			<path class="st9" d="M89,341c0,0,1-17.6-6.8-17C74.4,324.6,89,341,89,341z"/>
			<path class="st9" d="M100.8,343.6c0,0,1-16.5-6.4-16C87.1,328.2,100.8,343.6,100.8,343.6z"/>
			<path class="st9" d="M101.2,343.2c0,0-16.2,3.2-13.9,10.2C89.7,360.4,101.2,343.2,101.2,343.2z"/>
			<path class="st9" d="M111.1,346.9c0,0,1-16.5-6.4-16C97.3,331.5,111.1,346.9,111.1,346.9z"/>
			<path class="st9" d="M111.4,346.5c0,0-16.2,3.2-13.9,10.2C100,363.7,111.4,346.5,111.4,346.5z"/>
			<path class="st9" d="M121.1,352c0,0,3.1-16.3-4.2-16.7C109.5,335,121.1,352,121.1,352z"/>
			<path class="st9" d="M121.5,351.7c0,0-16.5,1.1-15.1,8.3C107.9,367.2,121.5,351.7,121.5,351.7z"/>
			<path class="st9" d="M130.3,356.4c0,0,3.1-16.3-4.2-16.7C118.7,339.4,130.3,356.4,130.3,356.4z"/>
			<path class="st9" d="M130.7,356.1c0,0-16.5,1.1-15.1,8.3C117.1,371.6,130.7,356.1,130.7,356.1z"/>
			<path class="st9" d="M140.2,364c0,0,3.1-16.3-4.2-16.7C128.6,346.9,140.2,364,140.2,364z"/>
			<path class="st9" d="M140.7,363.7c0,0-16.5,1.1-15.1,8.3C127.1,379.2,140.7,363.7,140.7,363.7z"/>
			<path class="st9" d="M88.7,341.1c0,0-15.4,8.5-10.7,14.8C82.7,362.1,88.7,341.1,88.7,341.1z"/>
			<path class="st9" d="M79.8,339.3c0,0-17.2,3.8-14.5,11.1C68,357.8,79.8,339.3,79.8,339.3z"/>
		</g>
		<g>
			<path class="st6" d="M558.9,261.6c20.5-15.5,61.4-49.6,64.4-142.2c-62.7,36.6-74.9,66.5-89.5,125.6"/>
			<path class="st7" d="M623.4,119.4c0,0-24.1,70.3-76,131.6"/>
			<path class="st7" d="M623.4,119.4c0,0-10.3,78.3-71.4,138.6"/>
			<path class="st7" d="M544.3,247.5c5.8-16.5,52.6-94,79.1-128.2"/>
			<path class="st7" d="M539.6,242.5c16.6-41.4,31.6-82.7,83.7-123.1"/>
		</g>
		<g>
			<path class="st6" d="M583.7,312.3c24.8-6.4,75.9-22,114.4-106.2c-72,9.5-94.8,32.3-131.1,81.2"/>
			<path class="st7" d="M698.1,206c0,0-49.4,55.5-121,92"/>
			<path class="st7" d="M698.1,206c0,0-39.7,68.2-119.5,100.2"/>
			<path class="st7" d="M575.6,293.6c11.7-13,84.9-66.4,122.5-87.6"/>
			<path class="st7" d="M573.2,287.2c31.4-31.8,61.1-64,124.9-81.1"/>
		</g>
		<g>
			<path class="st6" d="M573.4,351c25.4,3.4,78.6,8,145.9-55.6c-70.3-18.1-100-5.5-152,26.2"/>
			<path class="st7" d="M719.3,295.3c0,0-66.6,32.9-146.7,39.9"/>
			<path class="st7" d="M719.3,295.3c0,0-62.4,48.3-148.3,48.1"/>
			<path class="st7" d="M572.9,330.7c15.7-7.7,103.5-29.7,146.4-35.3"/>
			<path class="st7" d="M573.1,323.8c41-17.7,80.6-36.5,146.2-28.5"/>
		</g>
		<g>
			<path class="st6" d="M552,375.3c16.7,11.5,52.3,33.8,115.2,10.5c-44-38.3-67.8-39.5-111.9-34.4"/>
			<path class="st7" d="M667.3,385.8c0,0-54.6,0.8-111.7-22.4"/>
			<path class="st7" d="M667.3,385.8c0,0-55.6,13.7-115-16.9"/>
			<path class="st7" d="M556.9,360.1c12.9-0.1,79.3,14.7,110.4,25.7"/>
			<path class="st7" d="M558.8,355.1c32.9,1.4,65.1,1.6,108.4,30.7"/>
		</g>
		<g>
			<path class="st8" d="M582.4,274.3c12.1-56.9,60.6-86.6,60.6-86.6"/>
			<path class="st9" d="M641.6,188.6c0,0,9.6-17.6,16.8-12.3C665.5,181.5,641.6,188.6,641.6,188.6z"/>
			<path class="st9" d="M633.2,194.8c0,0-4.6-20.7,4.9-21.5C647.4,172.5,633.2,194.8,633.2,194.8z"/>
			<path class="st9" d="M625.2,201.6c0,0-12.3-17.3-3.9-21.7C629.6,175.5,625.2,201.6,625.2,201.6z"/>
			<path class="st9" d="M614.7,211.9c0,0-11.6-16.3-3.7-20.4C618.9,187.3,614.7,211.9,614.7,211.9z"/>
			<path class="st9" d="M614.1,211.7c0,0,18.7-7.1,20.7,1.6C636.8,221.9,614.1,211.7,614.1,211.7z"/>
			<path class="st9" d="M606.3,221.8c0,0-11.6-16.3-3.7-20.4C610.5,197.2,606.3,221.8,606.3,221.8z"/>
			<path class="st9" d="M605.7,221.6c0,0,18.7-7.1,20.7,1.6S605.7,221.6,605.7,221.6z"/>
			<path class="st9" d="M599.4,233.4c0,0-13.6-14.6-6.3-19.8C600.4,208.5,599.4,233.4,599.4,233.4z"/>
			<path class="st9" d="M598.8,233.3c0,0,17.6-9.5,20.7-1.1C622.6,240.5,598.8,233.3,598.8,233.3z"/>
			<path class="st9" d="M592.8,243.8c0,0-13.6-14.6-6.3-19.8C593.7,218.9,592.8,243.8,592.8,243.8z"/>
			<path class="st9" d="M592.1,243.7c0,0,17.6-9.5,20.7-1.1C616,250.9,592.1,243.7,592.1,243.7z"/>
			<path class="st9" d="M587.4,257.9c0,0-13.6-14.6-6.3-19.8C588.4,233.1,587.4,257.9,587.4,257.9z"/>
			<path class="st9" d="M586.8,257.9c0,0,17.6-9.5,20.7-1.1C610.6,265.1,586.8,257.9,586.8,257.9z"/>
			<path class="st9" d="M625.5,201.5c0,0,21.2-1.2,20.4,8.3C645.1,219.2,625.5,201.5,625.5,201.5z"/>
			<path class="st9" d="M633.5,194c0,0,20-7.1,21.9,2.2C657.4,205.4,633.5,194,633.5,194z"/>
		</g>
		<g>
			<path class="st8" d="M560,381.2c35.7-30,80.9-24.8,80.9-24.8"/>
			<path class="st9" d="M639.5,356.3c0,0,14.7-6.4,16.7,0.5C658.1,363.7,639.5,356.3,639.5,356.3z"/>
			<path class="st9" d="M631.2,356.1c0,0,7.3-15.3,13.7-11.2C651.1,349,631.2,356.1,631.2,356.1z"/>
			<path class="st9" d="M622.8,356.4c0,0,0.8-17,8.2-15.6C638.4,342.1,622.8,356.4,622.8,356.4z"/>
			<path class="st9" d="M611.1,357.8c0,0,0.7-16,7.7-14.7C625.8,344.3,611.1,357.8,611.1,357.8z"/>
			<path class="st9" d="M610.8,357.4c0,0,15.3,4.7,12.3,11.2C620.1,375,610.8,357.4,610.8,357.4z"/>
			<path class="st9" d="M601,359.9c0,0,0.7-16,7.7-14.7C615.7,346.5,601,359.9,601,359.9z"/>
			<path class="st9" d="M600.6,359.5c0,0,15.3,4.7,12.3,11.2C609.9,377.1,600.6,359.5,600.6,359.5z"/>
			<path class="st9" d="M590.8,363.8c0,0-1.4-15.9,5.8-15.6C603.7,348.6,590.8,363.8,590.8,363.8z"/>
			<path class="st9" d="M590.5,363.4c0,0,15.8,2.7,13.6,9.5C602,379.7,590.5,363.4,590.5,363.4z"/>
			<path class="st9" d="M581.5,367.1c0,0-1.4-15.9,5.8-15.6C594.4,351.9,581.5,367.1,581.5,367.1z"/>
			<path class="st9" d="M581.2,366.8c0,0,15.8,2.7,13.6,9.5C592.7,383,581.2,366.8,581.2,366.8z"/>
			<path class="st9" d="M571.2,373.4c0,0-1.4-15.9,5.8-15.6C584,358.1,571.2,373.4,571.2,373.4z"/>
			<path class="st9" d="M570.8,373c0,0,15.8,2.7,13.6,9.5C582.3,389.3,570.8,373,570.8,373z"/>
			<path class="st9" d="M623,356.5c0,0,13.9,9.7,8.8,15.3C626.7,377.4,623,356.5,623,356.5z"/>
			<path class="st9" d="M631.7,355.8c0,0,16.1,5.4,12.8,12.2C641.2,374.7,631.7,355.8,631.7,355.8z"/>
		</g>
	</g>
	<g>
		<path class="st10" d="M566.4,396.3H209.1c-2.9,0-5.3-2.4-5.3-5.3V132.7c0-2.9,2.4-5.3,5.3-5.3h357.3c2.9,0,5.3,2.4,5.3,5.3V391
			C571.7,393.9,569.3,396.3,566.4,396.3z"/>
		<rect x="210.2" y="133.9" class="st11" width="177.5" height="255.4"/>
		
			<rect x="387.7" y="133.9" transform="matrix(-1 -1.224647e-16 1.224647e-16 -1 952.925 523.2444)" class="st11" width="177.5" height="255.4"/>
		<path class="st12" d="M214.5,131.9v254.8c115.3-9.3,173.2,2,173.2,2V133.9C387.7,133.9,345,109,214.5,131.9z"/>
		<path class="st13" d="M214.5,131.9v254.8c130.4-22.9,173.2,2,173.2,2V133.9C387.7,133.9,345,109,214.5,131.9z"/>
		<path class="st12" d="M560.9,131.9v254.8c-115.3-9.3-173.2,2-173.2,2V133.9C387.7,133.9,430.5,109,560.9,131.9z"/>
		<path class="st13" d="M560.9,131.9v254.8c-130.4-22.9-173.2,2-173.2,2V133.9C387.7,133.9,430.5,109,560.9,131.9z"/>
		<g>
			<defs>
				<rect id="SVGID_1_" x="225.2" y="137.7" width="151.9" height="230.6"/>
			</defs>
			<clipPath id="SVGID_2_">
				<use xlink:href="#SVGID_1_"  style="overflow:visible;"/>
			</clipPath>
			<g class="st14">
				<path class="st15" d="M380.7,155.9c0,0-39.3-22.9-159.1-1.8"/>
				<path class="st15" d="M380.7,173.1c0,0-39.3-22.9-159.1-1.8"/>
				<path class="st15" d="M380.7,190.4c0,0-39.3-22.9-159.1-1.8"/>
				<path class="st15" d="M380.7,207.7c0,0-39.3-22.9-159.1-1.8"/>
				<path class="st15" d="M380.7,225c0,0-39.3-22.9-159.1-1.8"/>
				<path class="st15" d="M380.7,242.2c0,0-39.3-22.9-159.1-1.8"/>
				<path class="st15" d="M380.7,259.5c0,0-39.3-22.9-159.1-1.8"/>
				<path class="st15" d="M380.7,276.8c0,0-39.3-22.9-159.1-1.8"/>
				<path class="st15" d="M380.7,294.1c0,0-39.3-22.9-159.1-1.8"/>
				<path class="st15" d="M380.7,311.3c0,0-39.3-22.9-159.1-1.8"/>
				<path class="st15" d="M380.7,328.6c0,0-39.3-22.9-159.1-1.8"/>
				<path class="st15" d="M380.7,345.9c0,0-39.3-22.9-159.1-1.8"/>
				<path class="st15" d="M380.7,363.1c0,0-39.3-22.9-159.1-1.8"/>
			</g>
			<rect x="301.3" y="137.7" class="st16" width="80.4" height="72.4"/>
			<g class="st14">
				<path class="st17" d="M308.2,142.2v57.3c53.1-0.6,72.5,10.7,72.5,10.7V153C380.7,153,361.2,141.7,308.2,142.2z"/>
				<g>
					<path class="st18" d="M316.8,194.2c0,0,9.8-18,17.8-26.1c11.3,8.7,27.2,31.3,27.2,31.3S346.9,193.3,316.8,194.2z"/>
					<path class="st18" d="M365.2,200c6.9,1.9,10.2,3.6,10.2,3.6s-16.9-24.5-25.9-32.5l-3.6,3.5C346,174.7,357.4,187.8,365.2,200z"
						/>
					<path class="st18" d="M369.8,159.7c-0.7,2.4-3.7,3.7-6.7,2.8c-3-0.9-5-3.5-4.3-5.9c0.7-2.4,3.7-3.7,6.7-2.8
						C368.6,154.7,370.5,157.3,369.8,159.7z"/>
				</g>
			</g>
		</g>
		<g>
			<defs>
				
					<rect id="SVGID_3_" x="398.4" y="129.6" transform="matrix(-1 -1.224647e-16 1.224647e-16 -1 948.6362 497.8833)" width="151.9" height="238.7"/>
			</defs>
			<clipPath id="SVGID_4_">
				<use xlink:href="#SVGID_3_"  style="overflow:visible;"/>
			</clipPath>
			<path class="st19" d="M394.8,311.3c0,0,39.3-22.9,159.1-1.8"/>
			<path class="st19" d="M394.8,328.6c0,0,39.3-22.9,159.1-1.8"/>
			<path class="st19" d="M394.8,345.9c0,0,39.3-22.9,159.1-1.8"/>
			<path class="st19" d="M394.8,363.1c0,0,39.3-22.9,159.1-1.8"/>
			<g class="st20">
				<g>
					<path class="st21" d="M442.7,210.8c0-19.7,16-35.7,35.7-35.7s35.7,16,35.7,35.7c0,7.9-2.5,15.1-6.9,21l0,0
						c-5.1,7.7-18.4,14-18.4,24.6v5.9c0,1.2-1,2.1-2.1,2.1h-5.7h-5.3h-5.7c-1.2,0-2.1-1-2.1-2.1v-5.9c0-10.5-13.3-16.9-18.4-24.6h0
						C445.3,225.9,442.7,218.7,442.7,210.8z"/>
					<path class="st22" d="M483.1,262.9c-0.2-4.9-1.3-36.3,3.8-46.3c2.5-4.9,7.3-7.1,10.3-5.3c2,1.2,3,4.5,2.5,7.5
						c-0.9,5.9-6.3,13.2-21.1,13.2s-20.2-7.3-21.1-13.2c-0.5-3,0.5-6.3,2.5-7.5c3.1-1.8,7.8,0.3,10.3,5.3c5.2,10.1,4,41.4,3.8,46.3"
						/>
					<path class="st23" d="M486.1,180.9c12.9,3.3,22.5,15,22.5,28.9"/>
					<path class="st24" d="M478.1,179.9c0,1.1,0.9,2.1,2.1,2.1c1.1,0,2.1-0.9,2.1-2.1c0-1.1-0.9-2.1-2.1-2.1
						C479,177.9,478.1,178.8,478.1,179.9z"/>
					<path class="st24" d="M490.1,257.9h-22.7v10.8c0,1.8,0.5,3.5,1.5,5l0,0c1.8,2.8,4.9,4.5,8.3,4.5h3.3c3.3,0,6.5-1.7,8.3-4.5l0,0
						c0.9-1.5,1.5-3.2,1.5-5V257.9z"/>
					<g>
						<g>
							<g>
								<path class="st25" d="M490.1,265.9c-0.1,0-0.1,0-0.2,0l-22.7-3.2c-0.8-0.1-1.3-0.8-1.2-1.6c0.1-0.8,0.8-1.3,1.6-1.2
									l22.7,3.2c0.8,0.1,1.3,0.8,1.2,1.6C491.4,265.4,490.8,265.9,490.1,265.9z"/>
							</g>
						</g>
						<g>
							<g>
								<path class="st25" d="M490.1,270.9c-0.1,0-0.1,0-0.2,0l-22.7-3.2c-0.8-0.1-1.3-0.8-1.2-1.6c0.1-0.8,0.8-1.3,1.6-1.2
									l22.7,3.2c0.8,0.1,1.3,0.8,1.2,1.6C491.4,270.4,490.8,270.9,490.1,270.9z"/>
							</g>
						</g>
						<g>
							<g>
								<path class="st25" d="M489.2,275.8c-0.1,0-0.1,0-0.2,0l-21.6-3c-0.8-0.1-1.3-0.8-1.2-1.6c0.1-0.8,0.8-1.3,1.6-1.2l21.6,3
									c0.8,0.1,1.3,0.8,1.2,1.6C490.5,275.2,489.9,275.8,489.2,275.8z"/>
							</g>
						</g>
					</g>
				</g>
				<g>
					<path class="st22" d="M463.5,193.4v-56.5c0,0,3.7-0.1,10-0.1"/>
					<g>
						<path class="st26" d="M477.9,143.8c14.7,0.4,31.6,1.5,51,3.9"/>
						<path class="st26" d="M477.9,150c14.7,0.4,31.6,1.5,51,3.9"/>
						<path class="st26" d="M477.9,137.5c14.7,0.4,31.6,1.5,51,3.9"/>
						<path class="st26" d="M477.9,156.9c5.8,0.1,11.9,0.4,18.4,0.8"/>
					</g>
					<path class="st24" d="M475.1,136.9c0,0.9-0.7,1.6-1.6,1.6c-0.9,0-1.6-0.7-1.6-1.6c0-0.9,0.7-1.6,1.6-1.6
						C474.4,135.2,475.1,136,475.1,136.9z"/>
				</g>
				<g>
					<path class="st22" d="M405.1,186.7l0,36.7c8.5-2.1,20.4-4.1,36.3-5.1"/>
					<path class="st26" d="M404.9,166.1c8.8-2.2,21.4-4.3,38.5-5.3"/>
					<path class="st26" d="M404.9,173.5c8.8-2.2,21.4-4.3,38.5-5.3"/>
					<path class="st26" d="M404.9,180.9c7.2-1.8,16.8-3.5,29.3-4.6"/>
					<path class="st24" d="M406.7,186.7c0,0.9-0.7,1.6-1.6,1.6s-1.6-0.7-1.6-1.6c0-0.9,0.7-1.6,1.6-1.6S406.7,185.8,406.7,186.7z"/>
				</g>
				<g>
					<polyline class="st22" points="494.5,270.6 494.5,288.9 510,288.9 					"/>
					<path class="st26" d="M513.3,269.2c0,0,18.3,1,39.7,4.4"/>
					<path class="st26" d="M513.3,275.4c0,0,18.3,1,39.7,4.4"/>
					<path class="st26" d="M513.3,281.7c0,0,18.3,1,39.7,4.4"/>
					<path class="st26" d="M513.3,287.9c0,0,9.3,0.5,22.4,2"/>
					<path class="st24" d="M511.7,288.9c0,0.9-0.7,1.6-1.6,1.6c-0.9,0-1.6-0.7-1.6-1.6s0.7-1.6,1.6-1.6
						C510.9,287.3,511.7,288,511.7,288.9z"/>
				</g>
			</g>
		</g>
	</g>
	<g>
		<g>
			<g>
				<path class="st27" d="M148.5,359.7c-11.4,0-20.6-9.2-20.6-20.6c0-11.4,9.2-20.6,20.6-20.6h166.5v41.2H148.5z"/>
				<path class="st28" d="M314.4,319v40.2h-166c-11.1,0-20.1-9-20.1-20.1c0-11.1,9-20.1,20.1-20.1H314.4 M315.4,318h-167
					c-11.7,0-21.1,9.4-21.1,21.1c0,11.7,9.4,21.1,21.1,21.1h167V318L315.4,318z"/>
			</g>
			<g>
				<path class="st29" d="M148.5,353.7c-8.1,0-14.6-6.6-14.6-14.6c0-8.1,6.6-14.6,14.6-14.6h167.5v29.2H148.5z"/>
				<path class="st28" d="M315.4,325v28.2h-167c-7.8,0-14.1-6.3-14.1-14.1s6.3-14.1,14.1-14.1H315.4 M316.4,324h-1h-167
					c-8.3,0-15.1,6.8-15.1,15.1c0,8.3,6.8,15.1,15.1,15.1h167h1v-1V325V324L316.4,324z"/>
			</g>
			<g>
				<defs>
					<path id="SVGID_5_" d="M148.5,353.2c-7.8,0-14.1-6.3-14.1-14.1s6.3-14.1,14.1-14.1h167v28.2H148.5z"/>
				</defs>
				<clipPath id="SVGID_6_">
					<use xlink:href="#SVGID_5_"  style="overflow:visible;"/>
				</clipPath>
				<line class="st30" x1="124.7" y1="337.3" x2="315.4" y2="337.3"/>
				<line class="st30" x1="126.4" y1="346.2" x2="317.1" y2="346.2"/>
				<polygon class="st31" points="270.9,346.1 265.6,342.2 260.3,346.1 260.3,332.1 270.9,332.1 				"/>
				<line class="st30" x1="135.3" y1="332.1" x2="315.4" y2="332.1"/>
			</g>
		</g>
		<g>
			<g>
				<path class="st27" d="M140.9,431.2c-19.4,0-35.3-15.8-35.3-35.3s15.8-35.3,35.3-35.3h209.2c0.5,0,1,0.4,1,1v6c0,0.5-0.4,1-1,1
					H141.5c-14.9,0-27.4,11.9-27.8,26.4c-0.2,7.4,2.5,14.5,7.7,19.8c5.2,5.3,12.1,8.3,19.6,8.3h209.2c0.5,0,1,0.4,1,1v6
					c0,0.5-0.4,1-1,1H140.9z"/>
				<path class="st9" d="M350.1,361.2c0.3,0,0.5,0.2,0.5,0.5v6c0,0.3-0.2,0.5-0.5,0.5H141.5c-15.2,0-27.9,12.1-28.3,26.9
					c-0.2,7.6,2.6,14.7,7.8,20.2c5.3,5.4,12.4,8.4,19.9,8.4h209.2c0.3,0,0.5,0.2,0.5,0.5v6c0,0.3-0.2,0.5-0.5,0.5H140.9
					c-19.2,0-34.8-15.6-34.8-34.8s15.6-34.8,34.8-34.8H350.1 M350.1,360.2H140.9c-19.8,0-35.8,16-35.8,35.8v0
					c0,19.8,16,35.8,35.8,35.8h209.2c0.8,0,1.5-0.7,1.5-1.5v-6c0-0.8-0.7-1.5-1.5-1.5H140.9c-15,0-27.2-12.5-26.8-27.6
					c0.4-14.6,12.8-26,27.3-26h208.6c0.8,0,1.5-0.7,1.5-1.5v-6C351.6,360.8,350.9,360.2,350.1,360.2L350.1,360.2z"/>
			</g>
			<path class="st2" d="M140.9,422.7c-14.8,0-26.8-12-26.8-26.8s12-26.8,26.8-26.8h206.5v53.5H140.9z"/>
			<g>
				<defs>
					<path id="SVGID_7_" d="M140.9,422.7c-14.8,0-26.8-12-26.8-26.8s12-26.8,26.8-26.8h206.5v53.5H140.9z"/>
				</defs>
				<clipPath id="SVGID_8_">
					<use xlink:href="#SVGID_7_"  style="overflow:visible;"/>
				</clipPath>
				<g class="st32">
					<line class="st33" x1="109.1" y1="386" x2="360.1" y2="386"/>
					<line class="st33" x1="109.1" y1="400.5" x2="360.1" y2="400.5"/>
					<line class="st33" x1="109.1" y1="413.5" x2="360.1" y2="413.5"/>
					<line class="st33" x1="109.1" y1="375" x2="360.1" y2="375"/>
				</g>
			</g>
			<polygon class="st34" points="151.8,427.7 143.1,418.2 134.4,427.7 134.4,386 151.8,386 			"/>
		</g>
	</g>
	<g>
		<g>
			<g>
				<path class="st35" d="M450,416.6l-0.6,25l0.2,7.5l-17-0.2c-0.7,0-1.3-0.6-1.3-1.3l0,0c0-0.5,0.3-1,0.8-1.2l0.2-5.9l-0.6-26"/>
				<path class="st36" d="M430.1,448.7c0.3-0.9,2.4-8.1,2.4-8.1c7.4,3,17.1,0.7,17.1,0.7l1.7,10.2c0,0.3-0.3,0.6-0.6,0.6l-20.3-0.2
					C429.7,451.9,430.1,448.7,430.1,448.7z"/>
				<line class="st37" x1="451.1" y1="449.9" x2="430" y2="449.7"/>
				<path class="st37" d="M430.7,446.7c0,0,4.6-2.7,10.6-2.5c5.6,0.2,9.2,3.2,9.2,3.2"/>
			</g>
			<path class="st38" d="M426.4,327.9l3.7,109.4h21.5l-1.8-88.7c0,0,2.4-10.2-1.4-19.3"/>
			<line class="st39" x1="428.5" y1="327.9" x2="432.2" y2="437.3"/>
			<g>
				<g>
					<g>
						<path class="st35" d="M423.8,416.6l-1.7,25l0.2,7.5l-29.5-0.2c-0.7,0-1.3-0.6-1.3-1.3l0,0c0-0.5,0.3-1,0.8-1.2l12.7-5.9
							l0.5-26"/>
						<path class="st36" d="M390.2,448.7c0.3-0.9,0.9-2,1.4-2.2l13.5-5.8c7.4,3,17.1,0.7,17.1,0.7l1.7,10.2c0,0.3-0.3,0.6-0.6,0.6
							l-32.9-0.2C389.8,451.9,390.2,448.7,390.2,448.7z"/>
						<path class="st37" d="M402.2,441.2c0.8,1,1.4,2.1,1.9,3.2"/>
						<path class="st37" d="M400.5,442.2c0.8,1.1,1.1,1.7,1.6,2.7"/>
						<path class="st37" d="M399.1,442.9c0.5,0.7,1.1,1.7,1.5,2.5"/>
					</g>
					<line class="st37" x1="423.7" y1="449.9" x2="390.1" y2="449.7"/>
					<path class="st37" d="M422.8,444.9c0,0-7.9,0.2-8.6,4.9"/>
					<path class="st37" d="M394.4,445.2c0,0,2.2,3.1,2.6,4.5"/>
				</g>
			</g>
			<path class="st38" d="M406.3,325.5c-2.9,31.4-3.6,111.8-3.6,111.8h23c-0.6-11.4,4.7-89.2,4.7-89.2s6.1-7.9,5.8-22.7"/>
			<path class="st39" d="M409.5,325.5c-2.9,31.4-3.6,111.8-3.6,111.8"/>
			<path class="st39" d="M417.5,336.5c0,0,7.9,0.8,10.1,0.7"/>
			<path class="st39" d="M450.4,337.2c0,0-5.5,0.4-8.7,0.4"/>
			<path class="st39" d="M428.3,385.4l2-34.2c0.1-1.8,0.6-3.6,1.5-5.2c1.5-2.7,3.7-7.6,4-12.7"/>
		</g>
		<g>
			<path class="st35" d="M421.1,244.8c-1.7,4.2-4.9,13.6-1.1,15.6c3.8,2.1,7.4,0.5,10.9-2.5c3.5-3.1,4.3-7.7,1.4-11.6
				C429.7,242.6,422.8,240.6,421.1,244.8z"/>
			<polyline class="st35" points="422.9,257.8 421.4,268 434.1,266.7 433.7,253.8 			"/>
			<g>
				<path class="st40" d="M428.5,240.1c-3-1.6-5.3-0.2-7.2,1.3c-0.6,0.4-1.1,1-1.3,1.6c-0.2,0.6-0.1,1.4,0.5,1.9
					c0.4,0.3,0.9,0.5,1.1,1c0.1,0.2,0,0.3,0,0.5c-0.1,1.3-0.1,2.5,0,3.8c0,0.2,0.1,0.4,0.2,0.5c0.4,0.3,0.9-0.2,1.1-0.5
					c0.2-0.4,0.7-0.8,1-0.6c0.2,0.1,0.2,0.3,0.3,0.6c0.3,3.2,0.4,6.4,1.4,9.4c0.1,0.2,0.1,0.4,0.3,0.6c0.2,0.2,0.5,0.2,0.8,0.2
					c1.3,0.1,2.5,0.1,3.8,0.1c1.4,0,2.9-0.2,3.8-1.1c1.1-1,1.3-2.5,1.8-3.8c1.2-3.1,2.4-6,1.9-9.4c-0.4-2.5-1.8-4.9-4.5-5.5
					C431.8,240.2,430.1,240.2,428.5,240.1"/>
			</g>
		</g>
		<g>
			<path class="st29" d="M408.4,280.6c-0.3,1.2-2.2,31.6-2.9,48.7c11.9,2.1,32.5,2.6,44,0c0.3-30.1-3-59.1-3-59.1s-7.1-5.8-10.9-6.6
				c-4.3,2.4-12.6,3.1-12.6,3.1L408.4,280.6z"/>
			<path class="st35" d="M404.6,281.7c0,0-7.7,11.7-10.7,12.4c-8.5,1.9-29.6,3-29.6,3l0.2,11.1c0,0,23.3,4.6,38.6-2.3
				c8.9-4,17-23.5,17-23.5"/>
			<path class="st35" d="M440.6,258.8c0,0,5.3-10.1,7.7-17.7c3.2-9.7,5.1-21.2,5.1-21.2l11.3,1.6c0,0-1.4,15.5-3.9,25.3
				c-3.6,13.7-9.3,28.1-9.3,28.1"/>
			<g>
				<path class="st35" d="M452.3,226.8c0.7-4.8,3.5-23.3,4.3-23.5c0.8-0.2,0.6,4.1,1.3,3.8c0.7-0.3,1.5-7,2.4-7.1c1.2,0,0,6.8,0,6.8
					s0.8-2.2,1.8-1.9c0.8,0.2,0.5,3,0.5,3s0.3-1.7,1.1-1.4c0.8,0.2,0.6,2,0.6,2s0.7-1.2,1.3-0.7c1,0.8-0.8,12.1-1.9,22.7"/>
			</g>
			<path class="st29" d="M422.9,266.7c0,0-10.7-0.3-14.7,6.2c-4,6.5-9.5,16.4-9.5,16.4l14.9,7.4l7.1-12.6"/>
			<path class="st29" d="M427.5,266.3c0,0,4.5,0,8.7-3c2.2-1.6,2.9-3.9,5.7-7.6c6.6,0,14,8.8,14,8.8s-7,19.6-8.8,27"/>
			<line class="st41" x1="413.6" y1="296.7" x2="419.5" y2="286.2"/>
			<line class="st41" x1="447.9" y1="288.6" x2="447.1" y2="276.5"/>
			<g>
				<path class="st35" d="M376.4,296.3c-6.5,0.4-19.1,0.1-19.5,0.9c-0.4,0.8,4,1.3,3.5,1.9c-0.4,0.6-7.2,0.2-7.4,1.1
					c-0.2,1.2,6.7,1.2,6.7,1.2s-7.5,0.6-7.4,1.7c0.1,0.8,8,0.8,8,0.8s-6.8,0.3-6.8,1.1c0.1,0.8,7.5,1.3,7.5,1.3s-6,0.1-5.6,0.7
					c0.6,1.1,7.9,1.4,17.6,2.4"/>
			</g>
		</g>
	</g>
	<g>
		<g>
			<g>
				<path class="st35" d="M634.3,257c-9.9-2.8-12.3-2.5-23.6-7.4c-8.4-3.6-24.4-16-24.4-16l7.8-6.7c0,0,8.2,6,21,10.5
					c8.3,2.9,16.6,4.9,16.6,4.9"/>
				<g>
					<path class="st35" d="M603,232.8c-4.2-2.8-16.9-11.3-17.5-10.9c-0.6,0.4,1.2,1.9,0.6,2.1c-0.6,0.2-5-3.2-5.5-2.6
						c-0.7,0.7,4,3.9,4,3.9s-5.3-3.2-5.7-2.5c-0.3,0.6,3.6,3.2,5,4.4c-1.7-1.1-4.6-2.6-4.9-2c-0.3,0.6,2.3,2.5,4.3,4
						c-1.3-0.8-3.8-2.3-4.1-1.7c-0.3,0.5,4,4,9.8,8.2"/>
				</g>
			</g>
			<path class="st42" d="M650.3,250.7c0,0,1.3-1.4-3.8-4.1c-3.7-2-11.4-4.2-19.6-6.1l-1.7,15.8l12.9,4.7"/>
		</g>
		<g>
			<g>
				<g>
					<g>
						<path class="st35" d="M644.9,394.4l1.6,24.8l0.2,7.5l-29.3-0.1c-0.7,0-1.3-0.6-1.3-1.3l0,0c0-0.5,0.3-1,0.8-1.2l12.6-5.8
							l-2.7-25.8"/>
						<path class="st43" d="M614.8,426.3c0.3-0.9,0.8-2,1.4-2.2l13.4-5.8c7.4,3,16.9,0.7,16.9,0.7l1.7,10.1c0,0.3-0.3,0.6-0.6,0.6
							l-32.6-0.2C614.4,429.5,614.8,426.3,614.8,426.3z"/>
						<path class="st44" d="M626.7,418.8c0.8,1,1.4,2,1.9,3.2"/>
						<path class="st44" d="M625.1,419.8c0.8,1.1,1.1,1.7,1.6,2.7"/>
						<path class="st44" d="M623.6,420.6c0.5,0.7,1,1.7,1.5,2.5"/>
					</g>
					<line class="st44" x1="648.1" y1="427.5" x2="614.7" y2="427.3"/>
					<path class="st44" d="M647.2,422.5c0,0-7.9,0.2-8.5,4.9"/>
					<path class="st44" d="M619,422.8c0,0,2.2,3.1,2.6,4.5"/>
				</g>
			</g>
			<path class="st28" d="M630.4,297.3l-0.3,3.3c-2.1,7.8-6.8,29.3-6.7,52.4c0,22.7,3.1,60.2,3.1,60.2l22.1-0.5c0,0-3-50-2.6-62.2
				c0.4-12.1,3.5-33.8,3.5-33.8s9.1-8.2,5.2-22.1"/>
			<path class="st45" d="M644.5,412.8c0,0-2-50-1.6-62.2c0.4-12.1,2.5-33.8,2.5-33.8"/>
			<polygon class="st46" points="625.5,415.5 649.6,415.5 649.3,409.6 625.1,409.6 			"/>
			<g>
				<g>
					<g>
						<path class="st35" d="M680.7,370.5l20.6,14.7l5.4,4.7l-15.4,23.6c-0.4,0.6-1.2,0.7-1.8,0.3l0,0c-0.4-0.3-0.7-0.8-0.5-1.4
							l2.2-13.7L669,384.4"/>
						<path class="st43" d="M689.5,415.4c-0.6-0.8-1.2-1.8-1.1-2.4l2.6-14.3c6.6-4.5,10-13.7,10-13.7l8.2,5.4
							c0.3,0.2,0.3,0.6,0.2,0.8L692.3,417C692,417.5,689.5,415.4,689.5,415.4z"/>
						<path class="st44" d="M689.9,401.4c1.2-0.1,2.5,0,3.7,0.2"/>
						<path class="st44" d="M689.8,403.3c1.3,0,2,0,3.1,0.2"/>
						<path class="st44" d="M689.7,404.9c0.9,0,2,0.1,2.9,0.2"/>
					</g>
					<line class="st44" x1="707.9" y1="389.4" x2="690.3" y2="416.1"/>
					<path class="st44" d="M704.1,386.9c0,0-3.9,6.1-0.4,9.3"/>
					<path class="st44" d="M689,410c0,0,3.8-0.1,5.2,0.3"/>
				</g>
			</g>
			<path class="st28" d="M638.5,298.5c0,0-2.3,41.7,3.5,60.1c6.2,19.8,43.3,38.7,43.3,38.7l11.2-16.4c0,0-27.2-19.9-30.5-27.3
				c-2.3-5.1-1.9-27.9-1.2-30.7c1.7-6.5,2.5-15.8-0.3-22.6l-1.2-3.4"/>
			<path class="st45" d="M694.1,383.6c0,0-26.1-18.1-29.8-27.3c-2.8-6.8-3.3-29.2-2.6-32c1.7-6.5,2.6-17.2-0.2-23.3"/>
			<path class="st45" d="M638.4,301.5c0,0-2.2,37.3,2.9,54.2c1.3,4.2,3,7.6,4.9,11.5"/>
			<polygon class="st46" points="686.5,398.8 698.9,381.6 694.3,377.9 681.6,395.6 			"/>
			<path class="st45" d="M632.7,301.4c0,0,1.2,3.6-4,4.5"/>
			<path class="st45" d="M630.1,300.6c0,0,12.8,5.1,34.4-0.2"/>
			<path class="st45" d="M635.9,301.4c0,0-0.9,7.9,0.3,8.6c1.2,0.7,2.2,1.2,2.2,1.2"/>
			<path class="st45" d="M654,302.7c0,0,1.9,4.9,9,4.8"/>
			<path class="st45" d="M636.2,301.8l-1.8-0.2c-0.2,0-0.4-0.2-0.4-0.5c0-0.7,0.1-2,0.1-2.7c0-0.3,0.2-0.5,0.4-0.5h1.3"/>
			<path class="st47" d="M636.2,299.5c0,0.3-0.2,0.5-0.5,0.5c-0.3,0-0.5-0.2-0.5-0.5c0-0.3,0.2-0.5,0.5-0.5
				C636,299,636.2,299.2,636.2,299.5z"/>
			<line class="st45" x1="644.1" y1="302.1" x2="644.1" y2="297.4"/>
			<line class="st45" x1="656.6" y1="302.2" x2="655.9" y2="298.3"/>
		</g>
		<g>
			<path class="st42" d="M636.7,250.4c-4.4,7.4-7.5,10.6-8.1,13c-1.3,5.9,2.7,10.8,2.7,10.8l-1,23.1c9.1,2.3,22,2.9,33.1,0.2
				c0.7-8.3,6-27.2,6-32.6c0-13.6-8.1-16.3-12.5-18l-10.5-0.4L636.7,250.4z"/>
			<path class="st48" d="M659.1,247.7c0,0-1.8,2.9-7.6,2.1c-5.8-0.7-6.4-3.1-6.4-3.1"/>
			<g>
				<g>
					<path class="st35" d="M666,270.6c0,0-10.3,11.7-21.2,18.5c-8.9,5.7-36.1,7.8-36.1,7.8l-3.3-11.4c0,0,17.6-3.5,28.5-7.7
						c9.5-3.6,17.3-15.7,17.3-15.7"/>
					<g>
						<path class="st35" d="M618.6,282.6c-10.9,3.1-25.5,4.6-25.8,5.4c-0.3,0.8,2.4,0.8,2.1,1.4c-0.3,0.6-6.7,1-6.8,1.8
							c-0.1,1.1,6.4,0.4,6.4,0.4s-7.1,1.2-6.9,2.2c0.2,0.7,5.6,0.1,7.7,0.1c-2.3,0.3-5.9,1.2-5.8,1.9c0.2,0.7,3.9,0.4,6.7,0.2
							c-1.8,0.2-5,0.9-4.9,1.6c0.1,0.7,14,0.2,24-1.3"/>
					</g>
				</g>
				<polyline class="st42" points="668.1,269.7 659.4,280.3 645.6,269.1 653.5,259.1 				"/>
				<line class="st48" x1="645.6" y1="269.1" x2="652.4" y2="260.5"/>
				<line class="st48" x1="659.4" y1="280.3" x2="666.1" y2="272.7"/>
			</g>
			<path class="st48" d="M632.6,258.2c0,0,2.6-4.2,2.6-5.1"/>
		</g>
		<g>
			<g>
				<path class="st49" d="M663.6,226c1.4,1.1,3.2,1.6,4.8,1c1.7-0.7,3.1-2.1,4.8-2.9c2-0.9,4.8-0.8,6.7,0.2c1.7,0.9,2.9,2.5,4.5,3.6
					c2.5,1.7,5.4,2.2,7.8,0.2c2.3-1.9,5.8-2.6,8.2-0.3l-3.1,10.6c0,0-2.3-1.5-4.4,0c-1.1,0.8-2.3,1.4-3.6,1.9
					c-4.3,1.4-8.2-1.3-10.7-4.6c-0.8-1.1-1.6-2.3-2.8-2.7c-1.7-0.6-3.6-0.3-5.3-0.5c-2.7-0.4-4.4-2.4-6-4.4"/>
			</g>
			<path class="st50" d="M664.8,227c-0.1-0.4-0.1-0.8-0.2-1.3c-0.1-0.6-0.2-1.1-0.1-1.7c0.1-0.6,0.4-1.1,0.9-1.3
				c0.2-0.1,0.3-0.1,0.5,0c0.2,0.1,0.2,0.3,0.2,0.6c0,0.3-0.1,0.7-0.2,1c-0.3,1-0.6,2.1-1,3.1"/>
			<path class="st50" d="M665.2,227c0.5-1,1.4-1.8,2.5-2.3c0.4-0.2,0.8-0.3,1.2-0.2c0.1,0,0.2,0.1,0.2,0.2c0,0.1,0,0.2,0,0.3
				c-0.1,0.6-0.6,1.1-1.1,1.4c-0.8,0.5-1.6,0.8-2.6,1c0,0,3,1.5,2.6,4.8"/>
			<path class="st35" d="M648.6,238.8l-2,7.7c0,0,1.2,1.7,5.5,1.8c4,0.1,5.1-1.3,5.1-1.3l1.4-11.5"/>
			<path class="st35" d="M649.2,226.2c-4.1,6.3-6.1,11.9-1.7,14.2c4.6,2.5,10.1,0.9,11.7-5C660.8,229.3,651.9,222.8,649.2,226.2z"/>
			<g>
				<path class="st49" d="M666.1,232.9c0.7-3.9-1.7-9.1-5.8-10.1c-6.2-3.1-9.4-1.2-12.5,1.6c-0.4,0.3-0.7,0.8-0.5,1.2
					c0.1,0.2,0.3,0.3,0.4,0.4c0.9,0.5,2,0.7,3.1,0.7c0.1,0.9,0.8,1.7,1.7,2c0.9,0.3,1.8,0.3,2.7,0.2c-0.3,0.6,0,1.3,0.5,1.8
					c0.4,0.5,1,0.8,1.4,1.4c0.6,0.9,0.3,2.1,0.2,3.2c-0.1,1.4,0,2.8,0.3,4.1c0.1,0.3,0.2,0.6,0.5,0.8c0.2,0.1,0.4,0.1,0.6,0
					C662.3,239.7,665.4,236.6,666.1,232.9z"/>
			</g>
			<path class="st51" d="M648,241.2c2,0.7,4.6,0.7,6.6-0.4"/>
			<g>
				<g>
					<polygon class="st52" points="658.7,234.8 658.7,234.8 658.7,234.8 					"/>
				</g>
			</g>
			<path class="st53" d="M650.3,231.7c0,0-2.3,1.9-2.3,2.6c0,0.7,1.5,1.3,1.5,1.3"/>
			<path class="st27" d="M647.5,235.9l4.2,1.9c0,0-1.5,2-3.7,0.8C646.4,237.7,647.5,235.9,647.5,235.9z"/>
			<g>
				<g>
					<path class="st49" d="M648.8,230.3c-0.2,0.2-0.3,0.4-0.4,0.6c-0.3,0.4,0.4,0.8,0.7,0.4c0.1-0.2,0.2-0.4,0.3-0.6
						C649.5,230.3,649,230.1,648.8,230.3L648.8,230.3z"/>
				</g>
			</g>
			<path class="st54" d="M650.5,229.8c0,0-0.4-1.1-1.6-0.7"/>
			<g>
				<g>
					<path class="st49" d="M653.4,232.9c-0.1,0.2-0.3,0.4-0.4,0.6c-0.3,0.4,0.4,0.8,0.7,0.4c0.1-0.2,0.2-0.4,0.3-0.6
						C654,232.9,653.6,232.6,653.4,232.9L653.4,232.9z"/>
				</g>
			</g>
			<path class="st54" d="M653.7,231.3c0,0,1.2-0.1,1.9,1.5"/>
			<g>
				<path class="st35" d="M656.2,235.5c0.1-0.2,0.5-0.7,1.2-0.6c1.2,0,1.4,1.6,0.9,2.6c-0.3,0.6-0.7,1.1-1.4,1.4
					c-0.9,0.5-1.7,0.3-1.8-0.7"/>
			</g>
		</g>
	</g>
	<g>
		<g>
			<g>
				<g>
					<g>
						<path class="st35" d="M303.9,412.7l1.8,27.6l-0.2,8.3l31.5-0.2c0.8,0,1.4-0.7,1.4-1.4l0,0c0-0.6-0.4-1.1-0.9-1.3l-13-6.5
							l-0.5-28.6"/>
						<path class="st55" d="M340.9,448.1c-0.3-1-2-2.2-2.6-2.5l-13.9-6.4c-8.2,3.3-18.8,0.8-18.8,0.8l-1.9,11.2
							c0,0.4,0.3,0.7,0.7,0.7l35.2-0.2C341.7,451.7,340.9,448.1,340.9,448.1z"/>
						<line class="st56" x1="326.7" y1="439.9" x2="324.9" y2="443.4"/>
						<path class="st56" d="M328.6,441c-0.9,1.2-1.2,1.9-1.7,3"/>
						<path class="st56" d="M330.1,441.8c-0.6,0.8-1.2,1.9-1.6,2.8"/>
					</g>
					<line class="st56" x1="303.9" y1="449.5" x2="341.1" y2="449.3"/>
					<path class="st56" d="M335.3,444.3c0,0-2.4,3.4-2.9,5"/>
					<path class="st56" d="M305,444c0,0,8.7,0.2,9.5,5.4"/>
				</g>
			</g>
			<path class="st36" d="M294.4,325.5c0,0-2.5,9.8,0,20.7l8,89h25.1c0,0-3-77.3-4.8-109.7"/>
			<g>
				<g>
					<g>
						<path class="st35" d="M277.7,412.9l-0.6,27.6l-0.2,8.3l32.6-0.2c0.8,0,1.4-0.7,1.4-1.4l0,0c0-0.6-0.4-1.1-0.9-1.3l-14-6.5
							l1.8-28.6"/>
						<path class="st57" d="M312.4,448.3c-0.3-1-0.9-2.2-1.6-2.5l-14.9-6.4c-8.2,3.3-18.8,0.8-18.8,0.8l-1.9,11.2
							c0,0.4,0.3,0.7,0.7,0.7l36.3-0.2C312.9,451.9,312.4,448.3,312.4,448.3z"/>
						<path class="st58" d="M299.1,440c-0.8,1.1-1.5,2.3-2.1,3.5"/>
						<path class="st58" d="M301,441.2c-0.9,1.2-1.2,1.9-1.7,3"/>
						<path class="st58" d="M302.6,442c-0.6,0.8-1.2,1.9-1.6,2.8"/>
					</g>
					<line class="st58" x1="275.4" y1="449.6" x2="312.5" y2="449.5"/>
					<path class="st58" d="M276.4,444.2c0,0,8.7,0.2,9.5,5.4"/>
					<path class="st58" d="M307.8,444.5c0,0-2.4,3.4-2.9,5"/>
				</g>
			</g>
			<path class="st36" d="M277.9,325.5c0,0-2.4,9.1-0.2,19.6c0.2,0.8,0.2,1.5,0.2,2.3l-2.2,87.9h25.1c0,0,6.2-81.7,5.5-109.7"/>
			<path class="st59" d="M281,325.5c0,0-2.4,9.1-0.2,19.6c0.2,0.8,0.2,1.5,0.2,2.3l-2.2,87.9"/>
			<path class="st59" d="M301.8,426.7c2.3-36.3,5-78.6,4.5-101.3"/>
			<path class="st59" d="M280,333.3c6.2,0,12-1.1,12.7-7.8"/>
			<path class="st59" d="M306,338.7c0,0,1.9,0.3,2.4-0.8c0.9-2.1,0.9-8.1,0.9-12.5"/>
			<path class="st59" d="M316,324.9c0.1,0.3,0.5,5.9,7,5.9"/>
			<line class="st59" x1="275.7" y1="430.7" x2="301" y2="430.7"/>
			<line class="st59" x1="302.1" y1="430.7" x2="327.3" y2="430.7"/>
		</g>
		<g>
			<path class="st57" d="M296,263c-19.3,14.1-18.1,43.1-18.1,62.5c7,2.3,39.6,2,45.5,0c-0.4-9.4-2-40.2-4.7-49.7
				c-1.5-3.6-11-12.1-11-12.1L296,263z"/>
			<g>
				
					<rect x="286.5" y="298.2" transform="matrix(0.8773 0.4799 -0.4799 0.8773 188.0764 -105.0407)" class="st27" width="26" height="34.4"/>
				<line class="st60" x1="300.7" y1="299.3" x2="312.2" y2="305.6"/>
				<line class="st60" x1="295.3" y1="301" x2="313.9" y2="311.1"/>
				<line class="st60" x1="293.5" y1="304.4" x2="312" y2="314.6"/>
				<line class="st60" x1="291.6" y1="307.8" x2="310.1" y2="318"/>
				<line class="st60" x1="289.7" y1="311.3" x2="308.3" y2="321.4"/>
				<line class="st60" x1="287.9" y1="314.7" x2="306.4" y2="324.8"/>
				<line class="st60" x1="286" y1="318.1" x2="304.5" y2="328.2"/>
				<line class="st60" x1="284.1" y1="321.5" x2="302.6" y2="331.7"/>
			</g>
			<g>
				<path class="st35" d="M288.3,321.6c0,0-12.3-6-12.3-5.9c2.3,1.3,22.7,11.3,24.4,12.2c1.8,0.9,3.7,1.6,5.6,2.1
					c0.4,0.1,0.8,0.2,1.2,0c0.4-0.1,0.7-0.6,0.5-0.9c0.5,0.1,1.1-0.2,1.3-0.6c0.2-0.5,0.2-1.1-0.2-1.4c0.5-0.2,1-0.3,1.4-0.7
					c0.4-0.4,0.5-1,0.2-1.4c-0.1-0.1-0.1-0.2-0.1-0.3c0-0.1,0.1-0.1,0.1-0.2c0.3-0.3,0.8-0.4,1.1-0.7c0.3-0.3,0.6-0.7,0.4-1.1
					c-0.1-0.2-0.3-0.4-0.5-0.5c-1.1-0.9-2.3-1.8-3.4-2.7c-0.2-0.2-0.4-0.4-0.2-0.6c0.1-0.1,0.2-0.1,0.4-0.1c0.8,0.1,1.6,0.1,2.5,0
					c0.2,0,0.5-0.1,0.6-0.3c0-0.1,0-0.2-0.1-0.3c-0.2-0.4-0.6-0.6-1-0.9c-4.5-2.5-13.6-7.4-13.6-7.4"/>
			</g>
			<path class="st35" d="M271.1,278.9c0,0-10.8,21.2-7.6,27.3c3.6,7,29.7,17.5,29.7,17.5l6.3-12.3c0,0-18.5-10.1-18.5-13.7
				c0-3.1,5.5-12.5,5.5-12.5"/>
			<path class="st35" d="M325.5,272.3c0,0,9.3,11,11.9,11.5c2.6,0.6,16.9-9.7,16.9-9.7l6.7,9.9c0,0-19,16.8-25.7,16.1
				c-6.6-0.7-20.7-15.1-20.7-15.1"/>
			<path class="st57" d="M296,263c0,0-12.1-2.9-19.1,5.8c-7,8.7-9.7,18.4-9.7,18.4l16.3,7.5l7.4-14.7"/>
			<path class="st57" d="M307.8,263.7c0,0,6.5,0.6,10.7,2.6c4.2,2,16.7,15.5,16.7,15.5l-12.8,12.2l-9.4-9.8"/>
			<g>
				<path class="st35" d="M349.3,277.6c4-2.8,19.2-13.6,19.9-13.2c0.8,0.4-2.6,3.3-1.9,3.6c0.7,0.2,6.1-3.8,6.7-3.2
					c0.9,0.9-4.9,4.8-4.9,4.8s6.6-3.7,7.1-2.7c0.4,0.7-6.2,5.1-6.2,5.1s5.9-3.6,6.2-2.8c0.4,0.7-5.5,5.3-5.5,5.3s5-3.3,5.1-2.6
					c0.1,1.3-13.1,10.5-20.6,16.8"/>
			</g>
			<path class="st51" d="M366.3,268.7c-1.1,2.2-0.5,4.2-2.6,6.3"/>
			<g>
				<line class="st58" x1="283.4" y1="294.7" x2="289.7" y2="282.4"/>
				<line class="st58" x1="321.3" y1="292.9" x2="319.2" y2="277.6"/>
			</g>
		</g>
		<g>
			<path class="st35" d="M297.6,254.6L296,263c1.2,1.4,7.3,4.6,11.8,0.7l0.1-5.8L297.6,254.6z"/>
			<path class="st35" d="M309.7,245.1c0,0,3.8,10.4,0.4,13.8c-1.7,1.8-6.9,2.1-9.1,0.3c-1.6-1.3-4-9.3-3.1-10.7
				C301.5,243.2,309.7,245.1,309.7,245.1z"/>
			<path class="st53" d="M307.5,250c0,0,2,2.5,1.9,3.2c-0.1,0.8-1.8,1-1.8,1"/>
			<path class="st27" d="M309.7,255l-4.7,1.2c0,0,1.2,2.4,3.7,1.5C310.6,257.1,309.7,255,309.7,255z"/>
			<g>
				<g>
					<path class="st49" d="M309.1,249.2c0,0.2,0.1,0.4,0.2,0.6c0.2,0.5,1,0.3,0.8-0.2c-0.1-0.2-0.2-0.5-0.3-0.7
						C309.6,248.6,309,248.8,309.1,249.2L309.1,249.2z"/>
				</g>
			</g>
			<path class="st54" d="M308.4,248c0,0,0.6-1.1,1.8-0.4"/>
			<g>
				<g>
					<path class="st49" d="M303.6,251.1c0,0.2,0.1,0.4,0.2,0.6c0.2,0.5,0.9,0.3,0.8-0.2c-0.1-0.2-0.2-0.5-0.3-0.7
						C304,250.4,303.5,250.7,303.6,251.1L303.6,251.1z"/>
				</g>
			</g>
			<path class="st54" d="M304.2,249c0,0-1.2-0.3-2.3,1.2"/>
			<g>
				<path class="st40" d="M293.1,252.7c-1.3-2.7-1.6-6-0.5-8.8c0.7-1.7,1.8-3.2,3.4-4.2c1.7-1.1,4.4-1.6,6.4-1.8
					c2.2-0.2,4.5,0.3,6.6,1.3c2,1,3.6,3.2,3.4,5.4c-0.1,0.6-0.2,1.2-0.7,1.5c-0.3,0.2-0.7,0.3-1.1,0.3c-1.4,0.1-2.7-0.6-3.8-1.5
					c-0.2,0.7-0.6,1.4-1.3,1.6c-0.8,0.2-1.5-0.4-2.1-1c-0.4,0.8-0.9,1.7-1.7,2.1c-0.7,0.4-1.6,0.3-2.3-0.1c0.1,0,0.1,2.1,0.1,2.3
					c0,0.8-0.6,1.6-0.7,2.4c-0.3,1.9-0.8,3.8-1.4,5.7c-0.5-1-1.5-1.7-2.2-2.5C294.2,254.5,293.6,253.6,293.1,252.7z"/>
			</g>
			<path class="st51" d="M307.6,260.5c-3.7,0.1-6.9-1.7-6.9-1.7"/>
			<g>
				<path class="st61" d="M306.4,251c0,1.6-1.3,2.9-2.9,2.9c-1.6,0-2.9-1.3-2.9-2.9s1.3-2.9,2.9-2.9
					C305.1,248.1,306.4,249.4,306.4,251z"/>
				<path class="st61" d="M311.9,247.9c0.5,1.4,0,2.9-1.1,3.3c-1.1,0.4-2.4-0.5-2.9-1.9c-0.5-1.4,0-2.9,1.1-3.3
					C310.1,245.6,311.4,246.4,311.9,247.9z"/>
				<line class="st61" x1="307.8" y1="249.1" x2="306.1" y2="249.7"/>
				<line class="st61" x1="300.7" y1="251.3" x2="297.2" y2="253.1"/>
			</g>
			<path class="st35" d="M298.7,253.1c-1-1.6-2-1.5-2.6-0.7c-0.8,1,0.3,3.4,0.9,3.9c1.2,0.9,2.3,1,2.5-0.1"/>
		</g>
	</g>
	<g>
		<g>
			<path class="st35" d="M228.3,204.3l-3.4,6.4c0,0-2.3,0-5.5-1.6c-3.2-1.6-4.1-3.7-4.1-3.7l5.7-7.6"/>
			<path class="st35" d="M235.5,192.2c3.1,1.9-2.1,13.6-4.9,14.4c-2.8,0.7-8.5-4.8-10.2-9.5c-1.7-4.7,3.7-7.3,6.9-8.2
				C230.5,187.8,235.5,192.2,235.5,192.2z"/>
			<g>
				<g>
					<path class="st49" d="M233,197.8c-0.1,0.2-0.2,0.4-0.3,0.6c-0.2,0.5,0.5,0.9,0.7,0.4c0.1-0.2,0.2-0.5,0.3-0.7
						C233.8,197.6,233.2,197.5,233,197.8L233,197.8z"/>
				</g>
			</g>
			<path class="st54" d="M234.9,196.7c0,0-0.7-1-2.5-0.7"/>
			<path class="st27" d="M230.4,202.4l2,1.4c0,0-0.8,1.5-1.5,0.9C230.2,204.2,230.4,202.4,230.4,202.4z"/>
			<g>
				<path class="st62" d="M238.3,194.7c-1.4-0.5-3-1.3-4.1-1.9c-1.4,0.3-3,1.7-3,3.2c0,0.3,0,0.8-0.4,0.9c-0.2,0-0.4-0.2-0.5-0.4
					c-0.1-0.2-0.1-0.5-0.2-0.7c-0.2-0.4-0.8-0.6-1.2-0.5c-0.5,0.2-0.8,0.6-1,1c-0.5,1.1-0.9,2.5,0.2,3.5c0.2,0.1,0.4,0.3,0.5,0.5
					c0.2,0.4,0,1-0.3,1.4c-0.9,1.2-2.2,2.6-4.7,2.6c-1.8,0-4.8-2.4-5-3.6c0-0.1-1.7-7.4,1.5-12c1.7-2.5,4.7-4.3,7.9-4
					c1.9,0.2,3.6,1.3,4.6,2C237.8,187.7,238.9,193.2,238.3,194.7z"/>
			</g>
			<path class="st35" d="M235.3,199c0,0,0.5,3.5-0.2,3.9c-0.7,0.4-2.2-0.6-2.2-0.6"/>
		</g>
		<g>
			<g>
				
					<rect x="140.6" y="306.5" transform="matrix(1.619347e-03 1 -1 1.619347e-03 458.4767 154.8618)" class="st63" width="22.2" height="1"/>
				<path class="st64" d="M160.4,299.1l-0.5-1.9c0,0-2.5-0.7-4.3-1c-1.7-0.3-3.5-0.2-3.5-0.2l0,22.2c0,0,1.9-0.6,5-5.9
					c1.2-2.1,2.6-3.2,2.6-3.2L160.4,299.1z"/>
				<line class="st65" x1="158.1" y1="310.9" x2="156.7" y2="309.8"/>
				<line class="st65" x1="157.3" y1="312.2" x2="155.9" y2="311.3"/>
				<line class="st65" x1="156.5" y1="313.4" x2="155.1" y2="312.6"/>
				<path class="st35" d="M170.9,298l-11-0.8c0,0-1.1,1-1.1,4.8c0,3.8,1,7.1,1,7.1l12.8,1.7"/>
			</g>
			<path class="st43" d="M185.7,253.2c-3.5,9.4,2.2,23,2.2,23l3.6,23l-29.6-2.1l0.6,17.8c0,0,30.7,3.2,38.2,3.2
				c7.4,0,10.3-1.7,12.5-6c3.3-6.5-1.4-42.4-1.4-43l-5.1-23"/>
			<line class="st66" x1="165.7" y1="297.6" x2="166.6" y2="315.4"/>
			<g>
				<rect x="231.9" y="317" class="st63" width="22.2" height="1"/>
				<path class="st64" d="M235.1,308.8l-1.9,0.5c0,0-0.7,2.5-1,4.3c-0.3,1.7-0.2,3.5-0.2,3.5l22.2,0c0,0-0.6-1.9-5.9-5
					c-2.1-1.2-3.1-2.6-3.1-2.6L235.1,308.8z"/>
				<line class="st65" x1="246.8" y1="311" x2="245.8" y2="312.4"/>
				<line class="st65" x1="248.1" y1="311.9" x2="247.2" y2="313.3"/>
				<line class="st65" x1="249.3" y1="312.6" x2="248.5" y2="314.1"/>
				<path class="st35" d="M235.1,300.8l-2,8.4c0,0,1,1.1,4.8,1.1c3.8,0,7.1-1,7.1-1l3.1-11.4"/>
			</g>
			<path class="st43" d="M195.6,258.3c0,0-3.3,16.6,13.3,20.2c7.4,1.6,28.4,2.1,28.4,2.1l-4.7,25.7h18c0,0,3.9-19.4,5.1-32.3
				c0.8-8.6-3.9-13.3-9.9-13.3c-5.9,0-23.6-1.9-23.6-1.9l-3-3.7"/>
			<path class="st66" d="M212.6,279.1c0,0-13.9,0-17.2-15.5"/>
			<path class="st66" d="M202.7,262.1c0,0,3.8,0.7,8.7,0.4"/>
			<path class="st66" d="M184.5,259.9c0,0,3.7,1.1,6.1,1"/>
			<line class="st66" x1="233" y1="303" x2="251.2" y2="303"/>
		</g>
		<g>
			<g>
				<polygon class="st67" points="265.5,225.2 266.4,226.7 272.8,221.5 271.7,220.2 				"/>
				<g>
					<path class="st36" d="M272,221.8c-1.2-1.1-1.9-2.7-2-4.3c-0.1-1.7,0.5-3.2,1.7-4.5l0,0c2.3-2.5,6.3-2.6,8.8-0.3
						c2.5,2.3,2.6,6.3,0.3,8.8c-1.2,1.3-2.8,1.9-4.4,2C274.9,223.5,273.3,223,272,221.8z M272.7,213.9L272.7,213.9
						c-0.9,1-1.4,2.2-1.3,3.5c0,1.3,0.6,2.5,1.5,3.4c2,1.8,5.1,1.7,6.9-0.2c1.8-2,1.7-5.1-0.2-6.9c-1-0.9-2.2-1.4-3.5-1.3
						C274.9,212.4,273.7,212.9,272.7,213.9z"/>
				</g>
				<path class="st36" d="M261.4,229.6L261.4,229.6c0.4,0.6,1.3,0.5,1.8,0.1l7.8-6.3l-1.5-1.9l-7.8,6.3
					C261.1,228.2,261,229,261.4,229.6z"/>
			</g>
			<path class="st35" d="M252.3,228.3l6.9-2c0,0,4-3.1,5.5-3.2c1.7-0.1,2,0.5,2,0.5l-0.5,0.4c-0.5,0.4-0.6,1.2-0.1,1.7l0.1,0.1
				c0.4,0.4,1.2,0.5,1.6,0.1l1.1-0.9c0,0,1.7,0.1,0.4,1.6c0.8,0,1.4,0.9,0.1,1.9c0.5,0.2,0.5,1.1-0.3,1.9c0.6,0.6-0.2,1.5-0.8,1.8
				c-1.3,0.6-14.1,4.2-14.1,4.2"/>
			<path class="st68" d="M225.1,210.1c9.1,12.6,4.2,16.6-2.3,48.7c-21.8,0-38.5-3.8-38.5-3.8s5.2-16.8,14.8-35.6
				c4.6-8.9,12.2-13.4,16.5-14.5"/>
			<path class="st68" d="M211.3,224.3c0,0,11.8,19.7,18.5,20.7c10.6,1.5,29.9-5.3,29.9-5.3l-2-13.1c0,0-21.2,2.9-22.2,2.4
				c-3-1.7-10.4-18.8-10.4-18.8"/>
			<path class="st69" d="M226.3,243.2c0,0-8.2-6.8-13.7-17.5"/>
		</g>
	</g>
	<g>
		<g>
			<line class="st70" x1="520" y1="198.5" x2="543.3" y2="418.7"/>
			<line class="st70" x1="573.8" y1="198.5" x2="597.1" y2="418.7"/>
			<line class="st70" x1="521" y1="207.9" x2="574.8" y2="207.9"/>
			<line class="st70" x1="522.9" y1="225.8" x2="576.7" y2="225.8"/>
			<line class="st70" x1="524.8" y1="243.7" x2="578.6" y2="243.7"/>
			<line class="st70" x1="526.7" y1="261.6" x2="580.5" y2="261.6"/>
			<line class="st70" x1="528.6" y1="279.5" x2="582.4" y2="279.5"/>
			<line class="st70" x1="530.5" y1="297.4" x2="584.3" y2="297.4"/>
			<line class="st70" x1="532.4" y1="315.3" x2="586.2" y2="315.3"/>
			<line class="st70" x1="534.3" y1="333.2" x2="588.1" y2="333.2"/>
			<line class="st70" x1="536.2" y1="351.1" x2="590" y2="351.1"/>
			<line class="st70" x1="538.1" y1="369" x2="591.9" y2="369"/>
			<line class="st70" x1="540" y1="386.9" x2="593.8" y2="386.9"/>
			<line class="st70" x1="541.9" y1="404.8" x2="595.7" y2="404.8"/>
		</g>
		<g>
			<path class="st35" d="M583.2,166.5l-0.4,15.8c0,0-7.9,5.1-13.2-2.5l1.8-7.7L583.2,166.5z"/>
			<path class="st35" d="M573.4,156.8c0,0-7.9,9.7-5.3,14.1c1.3,2.3,3.8,3.6,6.5,2.3c2-0.9,10.4-7.3,9.8-9
				C582.1,157.8,573.4,156.8,573.4,156.8z"/>
			<path class="st35" d="M569.8,162.5c0,0-2.5,1.6-2.8,2.9c-0.1,0.6,1.9,1.1,1.9,1.1"/>
			<path class="st27" d="M568.8,167.6l3.7,0.3C572.3,169.3,568.9,172.1,568.8,167.6z"/>
			<g>
				<g>
					<path class="st49" d="M572.1,162.8c-0.1,0.3-0.3,0.5-0.4,0.8c0,0.2,0.1,0.4,0.3,0.3c0.4-0.2,0.6-0.6,0.6-1
						C572.6,162.6,572.2,162.5,572.1,162.8L572.1,162.8z"/>
				</g>
			</g>
			<path class="st54" d="M574.4,162.6c-0.2-0.7-0.8-1.2-1.5-1.4c-0.3-0.1-0.6-0.1-0.9,0"/>
			<g>
				<path class="st40" d="M587.5,159.5c-0.4-0.4-0.9-0.7-1.3-1.2c-0.9-1.1-0.7-2.9-1.7-3.9c-1-1-2.6-0.9-3.8-1.5
					c-0.8-0.3-1.4-0.9-2.2-1.3c-1.1-0.6-2.8-1.2-4-1.3c-1.4-0.1-2.8,0.3-3.7,1.2c-0.8,0.8-1.2,2-0.5,2.9c0.5,0.7,1.6,1.1,1.9,1.9
					c0.3,0.7-0.1,1.5,0.1,2.2c0.4,1.4,2.4,1.7,3.2,2.8c0.8,1.2,0.2,2.8,0.7,4.1c0.4,0.9,1.3,1.7,1.6,2.6c0.2,0.6,0.1,1.3,0.3,1.9
					c0.6,2,3.2,3.2,5.1,3.2c1,0,1.2-0.4,1.7-1.2c1.2-1.7,2.3-3.6,3-5.5c0.7-1.9,1.5-5.2-0.1-6.9
					C587.7,159.7,587.6,159.6,587.5,159.5z"/>
			</g>
			<path class="st35" d="M575.8,166.3c0.8-2,2.6-0.7,2.9,0.1c0.5,1.1-1.1,3.1-1.8,3.4c-1.3,0.6-2.3,0.4-2.3-0.7"/>
			<path class="st51" d="M571.2,173.7c2.7-0.2,4.5-1.1,4.5-1.1"/>
		</g>
		<g>
			<g>
				<g>
					<g>
						<path class="st71" d="M597.9,324.5l6.5,26.8l1.7,8.1l-29.7,5.2c-0.7,0.1-1.4-0.4-1.6-1.2l0,0c-0.1-0.6,0.1-1.2,0.6-1.5
							l11.7-8.7l-7.8-27.6"/>
						<path class="st72" d="M573.7,364.8c0.1-1.1,0.5-2.3,1-2.7l12.4-8.8c8.1,1.9,17.3-2.4,17.3-2.4l3.7,10.7
							c0.1,0.4-0.2,0.7-0.5,0.8l-33.1,5.8C573.9,368.4,573.7,364.9,573.7,364.8z"/>
						<path class="st73" d="M584.3,354.5c1,0.9,1.8,2,2.5,3.1"/>
						<path class="st73" d="M582.8,355.9c1,1,1.4,1.7,2.1,2.7"/>
						<path class="st73" d="M581.5,357c0.7,0.7,1.4,1.7,2,2.4"/>
					</g>
					<line class="st73" x1="607.6" y1="360" x2="573.8" y2="366"/>
					<path class="st73" d="M605.7,354.8c0,0-7.9,1.6-7.7,6.9"/>
					<path class="st73" d="M577.2,360.3c0,0,2.8,3,3.5,4.4"/>
				</g>
			</g>
			<path class="st72" d="M569.7,246c0,0,1.6,31.1,3.6,54.4c2.4,27.1,9.2,49,9.2,49l22.5-3.3c0,0-7.4-34.9-8.2-45.7
				c-1.1-15.3-0.3-37.3-0.3-37.3s4.4-9.2,0.4-20.2"/>
			<path class="st74" d="M573.6,245.7c0,0,0,36.6,3.6,60.4c3.1,20.8,8.5,42.8,8.5,42.8"/>
			<line class="st74" x1="581.4" y1="345.4" x2="603.7" y2="341.2"/>
			<g>
				<g>
					<g>
						<path class="st35" d="M572.7,329.6l1.6,27.5l0.2,8.3l-30.2-0.2c-0.7,0-1.3-0.7-1.3-1.4l0,0c0-0.6,0.3-1.1,0.9-1.3l13-6.4
							l-2.8-28.6"/>
						<path class="st43" d="M541.7,364.9c0.3-1,0.9-2.2,1.4-2.5L557,356c7.6,3.3,17.4,0.8,17.4,0.8l1.8,11.2c0,0.4-0.3,0.7-0.6,0.7
							l-33.6-0.2C541.3,368.5,541.7,364.9,541.7,364.9z"/>
						<path class="st75" d="M554,356.7c0.8,1.1,1.4,2.3,1.9,3.5"/>
						<path class="st75" d="M552.3,357.8c0.8,1.2,1.1,1.9,1.6,3"/>
						<path class="st75" d="M550.8,358.6c0.5,0.8,1.1,1.9,1.5,2.7"/>
					</g>
					<line class="st75" x1="576" y1="366.2" x2="541.6" y2="366.1"/>
					<path class="st75" d="M575.1,360.8c0,0-8.1,0.2-8.8,5.4"/>
					<path class="st75" d="M546,361.1c0,0,2.2,3.4,2.7,5"/>
				</g>
			</g>
			<path class="st43" d="M553.4,246c0,0-2.2,33.6-1.3,57c0.9,23.3,2.1,47.2,2.1,47.2h23c0,0-0.7-38-0.1-52.3
				c0.5-14.4,2.9-33.7,2.9-33.7s5.1-6.2,2.1-20.1"/>
			<path class="st76" d="M557.3,246c0,0-2.3,33.6-1.4,57c0.9,23.3,2.2,47.2,2.2,47.2"/>
			<path class="st76" d="M565,252.6c0,0,6.7,0.2,10,0"/>
			<path class="st74" d="M586.9,252.9c0,0,5.9-0.1,8.8-0.5"/>
			<line class="st76" x1="554" y1="345.6" x2="577.2" y2="345.6"/>
		</g>
		<g>
			<path class="st77" d="M607.8,217.9c-2.2-17.1-6.8-25.5-11.3-30.8c-5.9-7-13.4-8.1-13.4-8.1l-1,21.4c0,0,8.8,18,8.8,20.4
				c-0.1,5.6-7.2,25.2-7.2,25.2l15.2-1.4C598.8,244.6,609,227.3,607.8,217.9z"/>
			<g>
				<path class="st35" d="M518.4,169.9c-3.8-2.9-13.5-13.1-14.4-12.7c-0.9,0.4,2.5,4,1.7,4.2c-0.8,0.2-6.3-5-7.1-4.4
					c-1.1,0.9,4.9,5.9,4.9,5.9s-1.5-0.6-2.2,0.4c-0.5,0.7,0.9,2.2,0.9,2.2s-1.7-0.6-2.2,0.1c-0.5,0.8,1.1,2.5,1.1,2.5
					s-1.4-0.7-1.7,0.1c-0.5,1.3,3.5,5.3,11,12.3"/>
			</g>
			<g>
				<path class="st78" d="M583.1,179c0,0,11.9,4.5,14.8,20.6c1.3,7.2,0.9,47.7,0.9,47.7c-22.1,3.9-45.8-0.8-45.8-0.8
					s0.9-31.2,0.7-40.7c-0.5-22.8,17.7-26.3,17.7-26.3L583.1,179z"/>
			</g>
			<path class="st79" d="M598.8,244.6c0,0-21.6,3.9-45.8-1"/>
			<path class="st78" d="M582.1,179.1c0,0-14-0.6-24.6,0.9c-10.9,1.5-18.8,2.3-23,0.9c-4.2-1.5-20-16-20-16L503.2,176
				c0,0,17.1,22.4,32.2,24.3c15.2,1.9,31.8-2.1,31.8-2.1"/>
			<line class="st79" x1="554" y1="200.3" x2="564.9" y2="198.6"/>
		</g>
	</g>
</g>
</svg>
